<svg xmlns="http://www.w3.org/2000/svg" viewBox="0 0 500 500"><g id="freepik--background-complete--inject-3"><rect x="416.78" y="398.49" width="33.12" height="0.25" style="fill:#ebebeb"></rect><rect x="322.53" y="401.21" width="8.69" height="0.25" style="fill:#ebebeb"></rect><rect x="396.59" y="389.21" width="19.19" height="0.25" style="fill:#ebebeb"></rect><rect x="52.46" y="390.89" width="43.19" height="0.25" style="fill:#ebebeb"></rect><rect x="104.56" y="390.89" width="6.33" height="0.25" style="fill:#ebebeb"></rect><rect x="131.47" y="395.11" width="93.68" height="0.25" style="fill:#ebebeb"></rect><path d="M237,337.8H43.92a5.71,5.71,0,0,1-5.71-5.71V60.66A5.71,5.71,0,0,1,43.92,55H237a5.71,5.71,0,0,1,5.71,5.71V332.09A5.71,5.71,0,0,1,237,337.8ZM43.92,55.2a5.47,5.47,0,0,0-5.46,5.46V332.09a5.47,5.47,0,0,0,5.46,5.46H237a5.47,5.47,0,0,0,5.46-5.46V60.66A5.47,5.47,0,0,0,237,55.2Z" style="fill:#ebebeb"></path><path d="M453.31,337.8H260.21a5.72,5.72,0,0,1-5.71-5.71V60.66A5.72,5.72,0,0,1,260.21,55h193.1A5.71,5.71,0,0,1,459,60.66V332.09A5.71,5.71,0,0,1,453.31,337.8ZM260.21,55.2a5.47,5.47,0,0,0-5.46,5.46V332.09a5.47,5.47,0,0,0,5.46,5.46h193.1a5.47,5.47,0,0,0,5.46-5.46V60.66a5.47,5.47,0,0,0-5.46-5.46Z" style="fill:#ebebeb"></path><rect y="382.4" width="500" height="0.25" style="fill:#ebebeb"></rect><rect x="84.64" y="237.8" width="2.28" height="142.95" transform="translate(171.55 618.55) rotate(180)" style="fill:#ebebeb"></rect><path d="M111.38,223c0,7.29-5.18,13.66-12.87,17.05H73c-7.69-3.39-12.87-9.76-12.87-17.05S65.35,209.35,73,206H98.51C106.2,209.35,111.38,215.71,111.38,223Z" style="fill:#f0f0f0"></path><path d="M77.5,223c0-7.3,5.17-13.66,12.86-17.06h8.15c7.69,3.4,12.87,9.76,12.87,17.06s-5.18,13.66-12.87,17.05H90.36C82.67,236.67,77.5,230.3,77.5,223Z" style="fill:#f5f5f5"></path><path d="M69.73,381.84h32.09a3.91,3.91,0,0,0-3.92-3.91H73.65a3.92,3.92,0,0,0-3.92,3.91Z" style="fill:#ebebeb"></path><path d="M409.82,321.57c.09.09-.39.76,1.56.47,4.8-.72,13.16-2.67,15.48-7.61,3.33-7.05-7-4.47-6.62-8.08s12.08-3,13.32-8.26-6.7-2.77-6.81-5.34,9.06-1,10.87-6.68-5.1-1.51-4.31-3.88,8.55-13.1,4.33-14.34-11.32,9.76-14.06,11.32-5.17-7.43-8.44-3.63,1.91,17.06-2.25,19.64c-3.11,1.91-2.23-3.37-6.33-2.38C401,294.14,402.87,313.78,409.82,321.57Z" style="fill:#f5f5f5"></path><path d="M424.64,292.78a16.14,16.14,0,0,0-4.15.85,30.92,30.92,0,0,1,2.95-3.79.36.36,0,0,0,0-.51.35.35,0,0,0-.5,0,41.47,41.47,0,0,0-5.92,8.57,31.74,31.74,0,0,1,2.34-17.12.26.26,0,0,0-.12-.36.27.27,0,0,0-.36.12,32.16,32.16,0,0,0-2.26,18.11c-.49.94-1,1.94-1.47,3a67.21,67.21,0,0,0-4.06,11.88,24.31,24.31,0,0,1-2.83-10.85.28.28,0,0,0-.28-.26.26.26,0,0,0-.25.27,24.42,24.42,0,0,0,3.18,11.59,82.83,82.83,0,0,0-1.81,24.5.37.37,0,0,0,.38.34h0a.35.35,0,0,0,.28-.37,78.29,78.29,0,0,1,3.68-30.84,9.79,9.79,0,0,1,5.67-3.24.27.27,0,0,0,.22-.3.25.25,0,0,0-.3-.22,10,10,0,0,0-5.18,2.57A59.93,59.93,0,0,1,420,294.41a14.92,14.92,0,0,1,4.71-1.1.28.28,0,0,0,.25-.29A.27.27,0,0,0,424.64,292.78Z" style="fill:#e0e0e0"></path><path d="M402,326.44c-4.91.1-13.3-4.47-16.6-8.9s6.07-1.71,5.1-5.25-12.56-.92-14.7-6,6.23-3.9,5.89-6.49-9-2.06-11.78-7.45,4.84-2.37,3.65-4.6-10.75-11.62-6.75-13.58,12.95,7.82,15.95,8.91,3.7-5.66,7.61-2.43,1,17.36,5.58,19.22c3.42,1.39,2-5.07,5.91-3.44C408.77,299.29,404,326.41,402,326.44Z" style="fill:#e6e6e6"></path><g style="opacity:0.30000000000000004"><path d="M402,326.44c-4.91.1-13.3-4.47-16.6-8.9s6.07-1.71,5.1-5.25-12.56-.92-14.7-6,6.23-3.9,5.89-6.49-9-2.06-11.78-7.45,4.84-2.37,3.65-4.6-10.75-11.62-6.75-13.58,12.95,7.82,15.95,8.91,3.7-5.66,7.61-2.43,1,17.36,5.58,19.22c3.42,1.39,2-5.07,5.91-3.44C408.77,299.29,404,326.41,402,326.44Z" style="fill:#e6e6e6"></path></g><path d="M400.39,320.55a.33.33,0,0,0,.18-.15,25.93,25.93,0,0,0,2.2-13.17.33.33,0,0,0-.66,0,26.22,26.22,0,0,1-2,12.52A99.9,99.9,0,0,0,392.64,304a34.54,34.54,0,0,0-4.59-19.27.33.33,0,0,0-.45-.1.32.32,0,0,0-.1.45A34.21,34.21,0,0,1,392.05,303a91.73,91.73,0,0,0-12.57-16.8.42.42,0,0,0-.61,0,.44.44,0,0,0,0,.62,86.17,86.17,0,0,1,9.59,12.12,25.79,25.79,0,0,0-9.29-1.63.33.33,0,1,0,0,.65h0a25.49,25.49,0,0,1,9.91,1.93,104.18,104.18,0,0,1,5.35,9.2,11.08,11.08,0,0,0-9.17-1.62.33.33,0,0,0-.23.4.32.32,0,0,0,.4.24,10.58,10.58,0,0,1,9.69,2.34,89,89,0,0,1,9.52,36,.43.43,0,0,0,.44.42h0a.44.44,0,0,0,.42-.45A86.61,86.61,0,0,0,400.39,320.55Z" style="fill:#f5f5f5"></path><path d="M414.89,381.84c3.81-10.84,6.31-26.51,6.31-33.38a24,24,0,0,0-4.65-14.67H397.06a23.92,23.92,0,0,0-4.65,14.67c0,6.87,2.5,22.54,6.31,33.38Z" style="fill:#e6e6e6"></path><rect x="110.97" y="316.94" width="85.7" height="29.58" style="fill:#ebebeb"></rect><rect x="110.97" y="346.52" width="85.7" height="29.58" style="fill:#ebebeb"></rect><polygon points="143.54 346.52 154.2 316.94 137.79 316.94 127.13 346.52 143.54 346.52" style="fill:#f5f5f5"></polygon><polygon points="162.14 316.94 158.54 316.94 147.87 346.52 151.48 346.52 162.14 316.94" style="fill:#f5f5f5"></polygon><polygon points="132.87 376.1 143.54 346.52 127.13 346.52 116.46 376.1 132.87 376.1" style="fill:#f5f5f5"></polygon><polygon points="151.48 346.52 147.87 346.52 137.21 376.1 140.81 376.1 151.48 346.52" style="fill:#f5f5f5"></polygon><rect x="152.32" y="277.14" width="2.99" height="85.7" transform="translate(473.81 166.17) rotate(90)" style="fill:#e0e0e0"></rect><rect x="152.32" y="306.49" width="2.99" height="85.7" transform="translate(503.16 195.52) rotate(90)" style="fill:#e0e0e0"></rect><path d="M109.47,315.61v61.78h88.7V315.61Zm85.7,58.79h-82.7V348.08h82.7Zm0-29.31h-82.7V318.77h82.7Z" style="fill:#f5f5f5"></path><rect x="199.66" y="316.94" width="85.7" height="29.58" style="fill:#ebebeb"></rect><rect x="199.66" y="346.52" width="85.7" height="29.58" style="fill:#ebebeb"></rect><polygon points="241.18 346.52 251.84 316.94 235.43 316.94 224.77 346.52 241.18 346.52" style="fill:#f5f5f5"></polygon><polygon points="259.78 316.94 256.18 316.94 245.51 346.52 249.12 346.52 259.78 316.94" style="fill:#f5f5f5"></polygon><polygon points="230.51 376.1 241.18 346.52 224.77 346.52 214.1 376.1 230.51 376.1" style="fill:#f5f5f5"></polygon><polygon points="249.12 346.52 245.51 346.52 234.85 376.1 238.46 376.1 249.12 346.52" style="fill:#f5f5f5"></polygon><rect x="241.01" y="277.14" width="2.99" height="85.7" transform="translate(562.5 77.48) rotate(90)" style="fill:#e0e0e0"></rect><rect x="241.01" y="306.49" width="2.99" height="85.7" transform="translate(591.85 106.83) rotate(90)" style="fill:#e0e0e0"></rect><path d="M198.17,315.61v61.78h88.69V315.61Zm85.69,58.79h-82.7V348.08h82.7Zm0-29.31h-82.7V318.77h82.7Z" style="fill:#f5f5f5"></path><rect x="288.35" y="316.94" width="85.7" height="29.58" style="fill:#ebebeb"></rect><rect x="288.35" y="346.52" width="85.7" height="29.58" style="fill:#ebebeb"></rect><polygon points="324.82 346.52 335.49 316.94 319.08 316.94 308.41 346.52 324.82 346.52" style="fill:#f5f5f5"></polygon><polygon points="343.43 316.94 339.82 316.94 329.16 346.52 332.77 346.52 343.43 316.94" style="fill:#f5f5f5"></polygon><polygon points="314.16 376.1 324.82 346.52 308.41 346.52 297.75 376.1 314.16 376.1" style="fill:#f5f5f5"></polygon><polygon points="332.77 346.52 329.16 346.52 318.5 376.1 322.1 376.1 332.77 346.52" style="fill:#f5f5f5"></polygon><rect x="329.7" y="277.14" width="2.99" height="85.7" transform="translate(651.19 -11.21) rotate(90)" style="fill:#e0e0e0"></rect><rect x="329.7" y="306.49" width="2.99" height="85.7" transform="translate(680.54 18.14) rotate(90)" style="fill:#e0e0e0"></rect><path d="M286.86,315.61v61.78h88.69V315.61Zm85.69,58.79h-82.7V348.08h82.7Zm0-29.31h-82.7V318.77h82.7Z" style="fill:#f5f5f5"></path><polygon points="366.97 381.84 118.05 381.84 116.75 377.39 368.27 377.39 366.97 381.84" style="fill:#e0e0e0"></polygon><path d="M245.08,334.5a2.57,2.57,0,1,1-2.57-2.57A2.58,2.58,0,0,1,245.08,334.5Z" style="fill:#e0e0e0"></path><circle cx="242.51" cy="333.78" r="2.57" style="fill:#fafafa"></circle><circle cx="242.51" cy="361.67" r="2.57" style="fill:#e0e0e0"></circle><path d="M245.08,361a2.57,2.57,0,1,1-2.57-2.58A2.57,2.57,0,0,1,245.08,361Z" style="fill:#fafafa"></path><path d="M156.39,334.5a2.57,2.57,0,1,1-2.57-2.57A2.58,2.58,0,0,1,156.39,334.5Z" style="fill:#e0e0e0"></path><circle cx="153.82" cy="333.78" r="2.57" style="fill:#fafafa"></circle><circle cx="153.82" cy="361.67" r="2.57" style="fill:#e0e0e0"></circle><path d="M156.39,361a2.57,2.57,0,1,1-2.57-2.58A2.57,2.57,0,0,1,156.39,361Z" style="fill:#fafafa"></path><path d="M335.34,334.5a2.58,2.58,0,1,1-2.57-2.57A2.58,2.58,0,0,1,335.34,334.5Z" style="fill:#e0e0e0"></path><circle cx="332.77" cy="333.78" r="2.57" style="fill:#fafafa"></circle><circle cx="332.77" cy="361.67" r="2.57" style="fill:#e0e0e0"></circle><path d="M335.34,361a2.58,2.58,0,1,1-2.57-2.58A2.57,2.57,0,0,1,335.34,361Z" style="fill:#fafafa"></path></g><g id="freepik--Shadow--inject-3"><ellipse id="freepik--path--inject-3" cx="245.18" cy="412.39" rx="193.89" ry="11.32" style="fill:#f5f5f5"></ellipse></g><g id="freepik--Window--inject-3"><rect x="81.86" y="81.32" width="332.59" height="193.06" style="fill:#A6A9B0"></rect><rect x="81.86" y="81.32" width="332.59" height="193.06" style="fill:#fff;opacity:0.5"></rect><path d="M81.86,81.32V96.89H137.5v-6a5.38,5.38,0,0,1,5.38-5.38h37a5.37,5.37,0,0,1,5.37,5.38v6H414.45V81.32Z" style="fill:#A6A9B0"></path><path d="M95.74,89.1a3.58,3.58,0,1,1-3.57-3.57A3.57,3.57,0,0,1,95.74,89.1Z" style="fill:#fff;opacity:0.7000000000000001"></path><path d="M106.46,89.1a3.58,3.58,0,1,1-3.57-3.57A3.57,3.57,0,0,1,106.46,89.1Z" style="fill:#fff;opacity:0.7000000000000001"></path><path d="M117.18,89.1a3.58,3.58,0,1,1-3.57-3.57A3.57,3.57,0,0,1,117.18,89.1Z" style="fill:#fff;opacity:0.7000000000000001"></path><rect x="185.28" y="126.66" width="216.98" height="135.61" style="fill:#fff;opacity:0.30000000000000004"></rect><rect x="93.51" y="126.66" width="63.79" height="63.79" style="fill:#fff;opacity:0.30000000000000004"></rect><rect x="93.51" y="126.66" width="63.79" height="63.79" style="fill:#fff;opacity:0.4"></rect><rect x="108.42" y="207.35" width="37.76" height="2.69" style="fill:#263238"></rect><rect x="337.14" y="105.89" width="63.91" height="9.79" style="fill:#A6A9B0"></rect><rect x="337.14" y="105.89" width="63.91" height="9.79" style="fill:#fff;opacity:0.9"></rect><rect x="401.04" y="105.89" width="1.22" height="9.79" style="fill:#A6A9B0"></rect><rect x="249.19" y="105.89" width="1.22" height="9.79" style="fill:#A6A9B0"></rect><rect x="185.28" y="105.89" width="63.91" height="9.79" style="fill:#A6A9B0"></rect><rect x="185.28" y="105.89" width="63.91" height="9.79" style="fill:#fff;opacity:0.9"></rect><path d="M179.61,261.28h0a3,3,0,0,1-3-3v-38.1a3,3,0,0,1,3-3h0a3,3,0,0,1,3,3v38.1A3,3,0,0,1,179.61,261.28Z" style="fill:#fff;opacity:0.4"></path><path d="M103.56,208.69a4.77,4.77,0,1,1-4.76-4.77A4.76,4.76,0,0,1,103.56,208.69Z" style="fill:#fff;opacity:0.4"></path><rect x="108.42" y="222.34" width="48.36" height="2.69" style="fill:#263238"></rect><path d="M103.56,223.69a4.77,4.77,0,1,1-4.76-4.77A4.77,4.77,0,0,1,103.56,223.69Z" style="fill:#fff;opacity:0.4"></path><rect x="108.42" y="237.34" width="41.61" height="2.69" style="fill:#263238"></rect><path d="M103.56,238.69a4.77,4.77,0,1,1-4.76-4.77A4.77,4.77,0,0,1,103.56,238.69Z" style="fill:#fff;opacity:0.4"></path><rect x="108.42" y="252.34" width="37.76" height="2.69" style="fill:#263238"></rect><path d="M103.56,253.68a4.77,4.77,0,1,1-4.76-4.76A4.76,4.76,0,0,1,103.56,253.68Z" style="fill:#fff;opacity:0.4"></path><path d="M311.47,280.63h33.9c.73,0,.83-1.14.1-1.14h-33.9c-.73,0-.83,1.14-.1,1.14Z" style="fill:#A6A9B0"></path><path d="M350.83,280.63h4.28c.73,0,.83-1.14.1-1.14h-4.28c-.74,0-.84,1.14-.1,1.14Z" style="fill:#A6A9B0"></path><path d="M183.88,76.72H150c-.73,0-.84,1.14-.1,1.14h33.9c.73,0,.83-1.14.1-1.14Z" style="fill:#A6A9B0"></path><path d="M144.52,76.72h-4.28c-.73,0-.83,1.14-.1,1.14h4.28c.74,0,.84-1.14.1-1.14Z" style="fill:#A6A9B0"></path></g><g id="freepik--dropdown-menu--inject-3"><rect x="328.76" y="150.73" width="68.73" height="63.85" style="fill:#A6A9B0"></rect><rect x="328.76" y="150.73" width="68.73" height="63.85" style="fill:#fff;opacity:0.9"></rect><rect x="397.49" y="150.73" width="1.4" height="63.85" transform="translate(796.38 365.31) rotate(180)" style="fill:#A6A9B0"></rect><rect x="328.74" y="198.04" width="68.77" height="16.54" style="fill:#A6A9B0"></rect><rect x="339.16" y="156.67" width="47.93" height="4.45" style="fill:#263238"></rect><rect x="339.16" y="172.54" width="47.93" height="4.45" style="fill:#263238"></rect><rect x="339.16" y="188.41" width="47.93" height="4.45" style="fill:#263238"></rect><rect x="332.77" y="203.69" width="60.71" height="5.64" style="fill:#fff"></rect><rect x="258.64" y="104.59" width="68.73" height="78.87" style="fill:#A6A9B0"></rect><rect x="258.64" y="104.59" width="68.73" height="78.87" style="fill:#fff;opacity:0.9"></rect><rect x="327.37" y="104.59" width="1.4" height="78.87" transform="translate(656.13 288.06) rotate(180)" style="fill:#A6A9B0"></rect><rect x="261.05" y="107" width="63.91" height="9.79" style="fill:#A6A9B0"></rect><rect x="258.6" y="150.73" width="68.77" height="16.54" style="fill:#A6A9B0"></rect><rect x="269.04" y="125.55" width="47.93" height="4.45" style="fill:#263238"></rect><rect x="269.04" y="141.42" width="47.93" height="4.45" style="fill:#263238"></rect><rect x="262.65" y="156.7" width="60.71" height="5.64" style="fill:#fff"></rect><rect x="269.04" y="173.17" width="47.93" height="4.45" style="fill:#263238"></rect></g><g id="freepik--Character--inject-3"><path d="M177.85,201.45s-11.71,24.08-6.82,26.06,21.37,3.09,21.37,3.09l7.19,6.88,4.16-2.71-1.05-7-9.45-2-12.62-3.92a2,2,0,0,1-1.2-2.69l6.1-13.38Z" style="fill:#e4897b"></path><path d="M181.35,192.72a1.34,1.34,0,0,0-2.28-.46c-1.22,1.36-3,4.1-5.1,9.62l-2.13,5.69,10.86,7.48,4.09-6.23Z" style="fill:#fff"></path><path d="M180.17,199.4l1.19-1.53,2.33,1.76,3.1,9.19-4.09,6.23-2.08-1.43C181.26,207.75,180.17,199.4,180.17,199.4Z" style="opacity:0.2"></path><polygon points="184.27 214.03 171.84 205.28 170.94 207.97 182.68 216.12 184.27 214.03" style="fill:#A6A9B0"></polygon><polygon points="184.27 214.03 171.84 205.28 170.94 207.97 182.68 216.12 184.27 214.03" style="fill:#fff;opacity:0.5"></polygon><polygon points="183.55 380.58 177.82 400.06 172 399.72 173.23 378.58 183.55 380.58" style="fill:#e4897b"></polygon><path d="M213.69,236.38s7.07,14.21.27,40.34-34,117.17-34,117.17l-7.66-.92s-.48-32.67,10.29-59c0,0,5.17-44.82,2.65-55.36-1.76-7.36-2.83-13.52.21-24.67a77.35,77.35,0,0,1,4.9-13.88c2-4,1.41-5.51,1.41-5.51Z" style="fill:#A6A9B0"></path><path d="M213.69,236.38s7.07,14.21.27,40.34-34,117.17-34,117.17l-7.66-.92s-.48-32.67,10.29-59c0,0,5.17-44.82,2.65-55.36-1.76-7.36-2.83-13.52.21-24.67a77.35,77.35,0,0,1,4.9-13.88c2-4,1.41-5.51,1.41-5.51Z" style="opacity:0.5"></path><path d="M204.64,310c-9.82-27.3-7.12-47.11-7.12-47.11l6.15-.8,4.8,8.54,3.36,14C209.92,291.58,207.42,300.39,204.64,310Z" style="opacity:0.4"></path><path d="M179.16,400.08a.19.19,0,0,1-.13-.17.17.17,0,0,1,.11-.18c.13-.05,3-1.26,4.22-.75a.94.94,0,0,1,.52.5.68.68,0,0,1-.08.79,3.31,3.31,0,0,1-2.32.31A13.88,13.88,0,0,1,179.16,400.08Zm.62-.18c1.4.35,3.34.58,3.75.12.06-.06.12-.16,0-.4a.48.48,0,0,0-.32-.3,2.14,2.14,0,0,0-.34-.09A8.66,8.66,0,0,0,179.78,399.9Z" style="fill:#A6A9B0"></path><path d="M179.06,400.05a.18.18,0,0,1-.06-.17c0-.09.48-2.14,1.55-2.82a1.39,1.39,0,0,1,1-.19c.49.11.62.38.61.59.06.89-2,2.32-3,2.62h-.07A.15.15,0,0,1,179.06,400.05Zm2.38-2.85a1,1,0,0,0-.66.15,4.26,4.26,0,0,0-1.3,2.23c1-.45,2.38-1.6,2.4-2.13,0-.05,0-.18-.34-.25Z" style="fill:#A6A9B0"></path><path d="M178.5,398.91l-8.36-1a.68.68,0,0,0-.73.44L167.08,405a1.12,1.12,0,0,0,.68,1.44.86.86,0,0,0,.23.06c3,.31,5.72.47,9.48.93,4.43.54,3.24.93,8.44,1.64,3.14.42,4.15-3.08,2.84-3.42-6-1.5-6.41-3.42-8.5-5.88A2.7,2.7,0,0,0,178.5,398.91Z" style="fill:#263238"></path><polygon points="181.66 392.47 171.05 391.14 171.21 394.3 180.57 395.46 181.66 392.47" style="fill:#263238"></polygon><polygon points="181.66 392.47 171.05 391.14 171.21 394.3 180.57 395.46 181.66 392.47" style="opacity:0.4"></polygon><polygon points="212.89 381.9 210.39 401.31 204.51 401.31 203 382.26 212.89 381.9" style="fill:#e4897b"></polygon><path d="M223,234.2a18.33,18.33,0,0,0,1.42,5.09c2.39,6.07,5,25.16,4.42,34.82-1.49,27-17.46,120.74-17.46,120.74H203.7s-5.29-31.91,1-60c0,0,2.21-39.58-1.08-49.9-2.3-7.18-8.78-14.13-7.12-29.31s5.69-20.37,5.69-20.37Z" style="fill:#A6A9B0"></path><path d="M223,234.2a18.33,18.33,0,0,0,1.42,5.09c2.39,6.07,5,25.16,4.42,34.82-1.49,27-17.46,120.74-17.46,120.74H203.7s-5.29-31.91,1-60c0,0,2.21-39.58-1.08-49.9-2.3-7.18-8.78-14.13-7.12-29.31s5.69-20.37,5.69-20.37Z" style="opacity:0.5"></path><path d="M190.58,242.15l1.47-3,1.54.21-.89,3.12Z" style="fill:#A6A9B0"></path><path d="M212.8,239.85c4.17-.25,7.56-.68,9.73-1l1.08,3.09a105.77,105.77,0,0,1-10.81,1.17Z" style="fill:#A6A9B0"></path><path d="M195.93,239.59a106.44,106.44,0,0,0,14.46.39v3.23c-1.4,0-2.86.09-4.38.09a104.81,104.81,0,0,1-10.88-.56Z" style="fill:#A6A9B0"></path><g style="opacity:0.5"><path d="M190.58,242.15l1.47-3,1.54.21-.89,3.12Z" style="fill:#fff"></path><path d="M212.8,239.85c4.17-.25,7.56-.68,9.73-1l1.08,3.09a105.77,105.77,0,0,1-10.81,1.17Z" style="fill:#fff"></path><path d="M195.13,242.74l.8-3.15a106.44,106.44,0,0,0,14.46.39v3.23c-1.4,0-2.86.09-4.38.09" style="fill:#fff"></path></g><path d="M213,401.13a.17.17,0,0,1-.15-.15.18.18,0,0,1,.08-.19c.12-.07,2.78-1.66,4.08-1.33a1,1,0,0,1,.58.42.69.69,0,0,1,0,.8,3.3,3.3,0,0,1-2.26.63A13.33,13.33,0,0,1,213,401.13Zm.59-.25c1.44.15,3.38.1,3.73-.41,0-.06.1-.17,0-.4a.51.51,0,0,0-.37-.25,1.34,1.34,0,0,0-.35,0A8.53,8.53,0,0,0,213.57,400.88Z" style="fill:#A6A9B0"></path><path d="M212.88,401.12a.15.15,0,0,1-.08-.16c0-.1.17-2.18,1.14-3a1.38,1.38,0,0,1,1-.33c.51,0,.67.29.69.5.18.87-1.64,2.57-2.56,3a.09.09,0,0,1-.07,0A.2.2,0,0,1,212.88,401.12Zm2-3.15a.92.92,0,0,0-.63.24,4.27,4.27,0,0,0-1,2.38c.94-.58,2.14-1.91,2.08-2.43,0-.05,0-.18-.37-.2Z" style="fill:#A6A9B0"></path><path d="M212.17,400.06l-8.43.16a.66.66,0,0,0-.65.54l-1.4,6.89a1.12,1.12,0,0,0,.87,1.33l.24,0c3-.11,5.74-.33,9.52-.39,4.46-.08,3.34.47,8.59.45,3.16,0,3.67-3.62,2.33-3.77-6.15-.66-6.82-2.5-9.23-4.66A2.77,2.77,0,0,0,212.17,400.06Z" style="fill:#263238"></path><path d="M203.25,158.78c-.18-.61,0-1.21.41-1.32s.87.29,1.05.91,0,1.21-.41,1.32S203.42,159.4,203.25,158.78Z" style="fill:#263238"></path><path d="M203.18,159.72l4.72,3a4.22,4.22,0,0,1-3.26,1.91Z" style="fill:#de5753"></path><path d="M201.75,157.64a.39.39,0,0,0,.25-.25,3,3,0,0,1,1.84-2,.37.37,0,0,0,.25-.46.38.38,0,0,0-.46-.27,3.76,3.76,0,0,0-2.35,2.5.37.37,0,0,0,.22.47h0A.3.3,0,0,0,201.75,157.64Z" style="fill:#263238"></path><path d="M182.12,165.5c3.16,7.47,4.34,10.7,9.58,13.26,7.31,1.91,16.39-1.67,15.51-9.95-.78-7.44-5.81-18.38-14.38-18.82a11.07,11.07,0,0,0-10.71,15.51Z" style="fill:#e4897b"></path><path d="M199.53,175.25s5.43,1.1,7.58-3.64c-.73,3.81-3.9,6.23-7.71,7.19l-1.31-.92.71-1.93Z" style="opacity:0.2"></path><path d="M189.65,187.65s4.7-2.3,1.31-11.26c0,0,3.75-3.72,7.65-2.14s.62,9.83,5.21,11.1C203.82,185.35,201.43,188.66,189.65,187.65Z" style="fill:#e4897b"></path><path d="M198.83,163.58a25.94,25.94,0,0,1-3.25-3.83c-1.59-2.29,2.12-4.95,1.49-9.19s-5-1.66-5-1.66-10.6-1.2-12,9.81a13,13,0,0,0,13.21,19.84l.7-.16a6.89,6.89,0,0,0,4.76-6.54Z" style="fill:#263238"></path><path d="M192,178.7s-2.78.93-1.7,2.05S192,178.7,192,178.7Z" style="fill:#263238"></path><path d="M182.84,161.22c-.17-2.51-.82-4.51-3.33-4.34s-2.66,2.24-2.49,4.75.62,4.52,3.13,4.34S183,163.73,182.84,161.22Z" style="fill:#A6A9B0"></path><path d="M196.59,163.1a6.19,6.19,0,0,1,3.41,3.35c.84,2-.91,3.33-3,3-1.86-.29-4.52-1.71-4.49-3.87A2.82,2.82,0,0,1,196.59,163.1Z" style="fill:#e4897b"></path><path d="M170.3,162.1a6.75,6.75,0,0,0,7.2,6.25c3.72-.26,3.94-3.3,3.68-7s-.91-6.69-4.62-6.43A6.75,6.75,0,0,0,170.3,162.1Z" style="fill:#263238"></path><path d="M195.85,147.34c-.7,1-1.4,2.45-.64,3.46.43.58,1.21.78,1.73,1.29a3.78,3.78,0,0,1,.88,2.19,54.09,54.09,0,0,1,.74,8.71c2-3.46,4.14-7.12,4.22-11.13a7.12,7.12,0,0,0-.71-3.47,3.89,3.89,0,0,0-2.77-2.06C198.12,146.17,195.85,147.34,195.85,147.34Z" style="fill:#263238"></path><path d="M206.81,185.82s.46-5.72-10.62-3.41-3.64,5.49-3.64,5.49Z" style="fill:#A6A9B0"></path><path d="M206.81,185.82s.46-5.72-10.62-3.41-3.64,5.49-3.64,5.49Z" style="fill:#fff;opacity:0.5"></path><path d="M222.81,236.25c-12.4,2.41-26.62,1.42-31.83.93-1.18-.12,1-14-11.52-39.15a5.78,5.78,0,0,1,1.29-7.09c8.52-7.05,24-6.78,31.1-6.21a8.07,8.07,0,0,1,6.18,3.62,38.93,38.93,0,0,1,4.91,13.6,89.13,89.13,0,0,1,1.43,13.83C224.7,226.76,223.37,236.14,222.81,236.25Z" style="fill:#fff"></path><path d="M224.37,215.78c-4-.76-9.62-15.51-9.62-15.51l8.19,1.68A89.13,89.13,0,0,1,224.37,215.78Z" style="opacity:0.2"></path><path d="M222,192.39l11.9,7.59a1.85,1.85,0,0,0,2.62-.66L246.18,182l3.5-9,1-1.09,6-5.08h2.3l-4.46,4,1.24,2.12,2,4.55-7.95,7s-4.62,20.77-9.57,25.2c-3.93,3.52-23.71-10.46-23.71-10.46Z" style="fill:#e4897b"></path><path d="M213.79,185.15c3.09.94,9.89,4,20.55,14.06l-7.84,10.5a17.05,17.05,0,0,1-11.75-9.44,30.88,30.88,0,0,1-3-13.63A1.58,1.58,0,0,1,213.79,185.15Z" style="fill:#fff"></path><polygon points="233.11 197.07 224.24 209.88 227.21 210.5 235.58 199.07 233.11 197.07" style="fill:#A6A9B0"></polygon><polygon points="233.11 197.07 224.24 209.88 227.21 210.5 235.58 199.07 233.11 197.07" style="fill:#fff;opacity:0.5"></polygon><polygon points="212.89 393.22 202.19 393.22 202.78 396.33 212.22 396.33 212.89 393.22" style="fill:#263238"></polygon><polygon points="212.89 393.22 202.19 393.22 202.78 396.33 212.22 396.33 212.89 393.22" style="opacity:0.4"></polygon></g></svg>