<svg xmlns="http://www.w3.org/2000/svg" viewBox="0 0 163.53 71.04"><defs><style>.cls-1{fill:#fff;}</style></defs><title>pnp-spfx-controls</title><g id="Layer_2" data-name="Layer 2"><g id="Layer_1-2" data-name="Layer 1"><path class="cls-1" d="M41.39,61.91a9.45,9.45,0,0,1-4,.71,8.18,8.18,0,0,1-2.8-.45,5.87,5.87,0,0,1-2.1-1.28,5.63,5.63,0,0,1-1.32-2,7,7,0,0,1-.46-2.6,7.19,7.19,0,0,1,.52-2.79,6.46,6.46,0,0,1,1.49-2.17,6.8,6.8,0,0,1,2.29-1.41,8.42,8.42,0,0,1,3-.49,10,10,0,0,1,3.39.49v2.45a6.28,6.28,0,0,0-3.1-.77,5.33,5.33,0,0,0-1.88.32,4,4,0,0,0-1.44.91,3.81,3.81,0,0,0-.91,1.42,5.06,5.06,0,0,0-.32,1.87A5.33,5.33,0,0,0,34,57.91a3.81,3.81,0,0,0,.86,1.36,3.62,3.62,0,0,0,1.36.87,5.09,5.09,0,0,0,1.81.3,6.58,6.58,0,0,0,3.33-.83Z"/><path class="cls-1" d="M49.48,62.62a7.45,7.45,0,0,1-2.69-.46,6.09,6.09,0,0,1-2.07-1.33,5.91,5.91,0,0,1-1.33-2,6.89,6.89,0,0,1-.48-2.61,7.65,7.65,0,0,1,.47-2.72,6,6,0,0,1,1.35-2.14,6.08,6.08,0,0,1,2.13-1.4,7.74,7.74,0,0,1,2.85-.49,7,7,0,0,1,2.66.48,5.93,5.93,0,0,1,3.33,3.4,7.21,7.21,0,0,1,.46,2.58,7.5,7.5,0,0,1-.49,2.79A5.93,5.93,0,0,1,54.3,60.8a6.16,6.16,0,0,1-2.11,1.35A7.42,7.42,0,0,1,49.48,62.62Zm.13-11a3.72,3.72,0,0,0-1.56.32,3.11,3.11,0,0,0-1.16.9,4.14,4.14,0,0,0-.73,1.4,6.62,6.62,0,0,0,0,3.64,4,4,0,0,0,.7,1.39,3.21,3.21,0,0,0,1.14.89,3.48,3.48,0,0,0,1.51.31,4.12,4.12,0,0,0,1.58-.29,3.08,3.08,0,0,0,1.15-.86,3.91,3.91,0,0,0,.7-1.38,6.53,6.53,0,0,0,.24-1.85,7.17,7.17,0,0,0-.23-1.88,3.85,3.85,0,0,0-.67-1.41,2.93,2.93,0,0,0-1.12-.88A3.71,3.71,0,0,0,49.61,51.6Z"/><path class="cls-1" d="M71.17,62.4H68.3l-5.78-8a8,8,0,0,1-.52-.76,4.46,4.46,0,0,1-.31-.54h0c0,.18,0,.43,0,.76s0,.72,0,1.17V62.4H59.06V49.64h3.06l5.67,7.88c.21.29.38.53.49.71l.29.48h0a5.41,5.41,0,0,1-.06-.72c0-.31,0-.69,0-1.13V49.64h2.65Z"/><path class="cls-1" d="M84.16,51.81h-3.9V62.4H77.4V51.81H73.5V49.64H84.16Z"/><path class="cls-1" d="M97.25,62.4H93.9l-2-3.44a6.93,6.93,0,0,0-.47-.74,2.29,2.29,0,0,0-.46-.47,1.19,1.19,0,0,0-.47-.25,1.93,1.93,0,0,0-.55-.07h-.64v5H86.48V49.64h4.69a6,6,0,0,1,3.55.88A2.93,2.93,0,0,1,96,53.07a3.23,3.23,0,0,1-.85,2.25,3.67,3.67,0,0,1-1,.76,5.26,5.26,0,0,1-1.24.49v0a2.77,2.77,0,0,1,1,.64,6.06,6.06,0,0,1,.9,1.15ZM93,53.32A1.44,1.44,0,0,0,92.39,52a3.22,3.22,0,0,0-1.73-.38H89.34v3.79h1a4.12,4.12,0,0,0,1.09-.13,2.51,2.51,0,0,0,.84-.39,1.86,1.86,0,0,0,.55-.66A2,2,0,0,0,93,53.32Z"/><path class="cls-1" d="M104.68,62.62a7.39,7.39,0,0,1-2.68-.46,6.13,6.13,0,0,1-2.08-1.33,6.06,6.06,0,0,1-1.33-2,6.89,6.89,0,0,1-.48-2.61,7.65,7.65,0,0,1,.47-2.72,6.14,6.14,0,0,1,1.35-2.14,6.21,6.21,0,0,1,2.14-1.4,7.74,7.74,0,0,1,2.85-.49,7,7,0,0,1,2.65.48,5.89,5.89,0,0,1,2,1.36,5.79,5.79,0,0,1,1.3,2,7,7,0,0,1,.46,2.58,7.5,7.5,0,0,1-.49,2.79,5.93,5.93,0,0,1-1.37,2.12,6.16,6.16,0,0,1-2.11,1.35A7.38,7.38,0,0,1,104.68,62.62Zm.13-11a3.72,3.72,0,0,0-1.56.32,3.19,3.19,0,0,0-1.16.9,4.14,4.14,0,0,0-.73,1.4,6.11,6.11,0,0,0-.25,1.82,6.42,6.42,0,0,0,.24,1.82,4.06,4.06,0,0,0,.71,1.39,3.09,3.09,0,0,0,1.13.89,3.52,3.52,0,0,0,1.51.31,4.08,4.08,0,0,0,1.58-.29,3.08,3.08,0,0,0,1.15-.86,3.91,3.91,0,0,0,.7-1.38,6.53,6.53,0,0,0,.24-1.85,7.17,7.17,0,0,0-.23-1.88,3.85,3.85,0,0,0-.67-1.41,2.9,2.9,0,0,0-1.11-.88A3.79,3.79,0,0,0,104.81,51.6Z"/><path class="cls-1" d="M122.26,62.4h-8V49.64h2.86v10.6h5.13Z"/><path class="cls-1" d="M123.91,59.34a4.65,4.65,0,0,0,.81.51,5.29,5.29,0,0,0,.92.39,8.08,8.08,0,0,0,1,.24,6.19,6.19,0,0,0,1,.08,3.16,3.16,0,0,0,1.8-.4,1.24,1.24,0,0,0,.58-1.06,1.21,1.21,0,0,0-.14-.58,1.42,1.42,0,0,0-.45-.48,5.53,5.53,0,0,0-.89-.52c-.37-.18-.84-.4-1.42-.65a6.4,6.4,0,0,1-2.42-1.65,3.39,3.39,0,0,1-.76-2.23,3,3,0,0,1,.39-1.55,3.36,3.36,0,0,1,1.07-1.12,5.34,5.34,0,0,1,1.61-.67,8.26,8.26,0,0,1,2-.22,11.82,11.82,0,0,1,1.81.12,5.54,5.54,0,0,1,1.35.35v2.42a5.06,5.06,0,0,0-1.46-.62,6.67,6.67,0,0,0-1.65-.21,3.3,3.3,0,0,0-1.72.38,1.1,1.1,0,0,0-.62,1,1.19,1.19,0,0,0,.11.51,1.25,1.25,0,0,0,.39.46,4.64,4.64,0,0,0,.79.48c.34.17.77.37,1.31.6a10.84,10.84,0,0,1,1.53.78,4.93,4.93,0,0,1,1.09.88,3.4,3.4,0,0,1,.65,1.05,3.62,3.62,0,0,1,.21,1.26,3.54,3.54,0,0,1-.35,1.59,3.21,3.21,0,0,1-1,1.18,5,5,0,0,1-1.63.74,8.59,8.59,0,0,1-2.2.25,8.36,8.36,0,0,1-1,0,7.86,7.86,0,0,1-1-.15c-.32-.06-.62-.14-.91-.22a3.55,3.55,0,0,1-.72-.3Z"/><path class="cls-1" d="M161.23,42.94V68.76H2.28V42.94h159m2.28-2.28H0V71H163.51V40.66Z"/><path class="cls-1" d="M79.33,32V26.81a10,10,0,0,0,6.38,2.35A7.27,7.27,0,0,0,87.43,29a4.1,4.1,0,0,0,1.23-.49,2.23,2.23,0,0,0,.73-.74,1.83,1.83,0,0,0,.24-.92,2,2,0,0,0-.38-1.21,4.39,4.39,0,0,0-1.06-1,11.59,11.59,0,0,0-1.59-.87c-.62-.28-1.28-.56-2-.85a10.07,10.07,0,0,1-4-2.75,6,6,0,0,1-1.34-3.93A6.14,6.14,0,0,1,80,13.15a6,6,0,0,1,2-2.13,8.73,8.73,0,0,1,2.9-1.23,14.58,14.58,0,0,1,3.49-.4,21.63,21.63,0,0,1,3.2.22,12.49,12.49,0,0,1,2.58.67v4.81a7.42,7.42,0,0,0-1.27-.71,10.33,10.33,0,0,0-1.41-.51,12.89,12.89,0,0,0-1.45-.3,11,11,0,0,0-1.36-.09,6.77,6.77,0,0,0-1.62.17,4.32,4.32,0,0,0-1.23.47,2.35,2.35,0,0,0-.77.73,1.79,1.79,0,0,0-.28,1,1.87,1.87,0,0,0,.31,1,4,4,0,0,0,.87.87,9.52,9.52,0,0,0,1.38.8c.53.26,1.14.53,1.82.81a21.59,21.59,0,0,1,2.5,1.23A9.22,9.22,0,0,1,93.49,22a5.67,5.67,0,0,1,1.21,1.88,6.58,6.58,0,0,1,.42,2.45,6.52,6.52,0,0,1-.73,3.24,6,6,0,0,1-2,2.12,8.79,8.79,0,0,1-2.94,1.17,17.36,17.36,0,0,1-3.52.35,19.23,19.23,0,0,1-3.63-.32A11.1,11.1,0,0,1,79.33,32Z"/><path class="cls-1" d="M104.15,24.9v7.94H98.94V9.78h8.17q8.74,0,8.75,7.35a7.06,7.06,0,0,1-2.51,5.62,10,10,0,0,1-6.71,2.15Zm0-11.13V21h2c2.78,0,4.17-1.22,4.17-3.64s-1.39-3.55-4.17-3.55Z"/><path class="cls-1" d="M132.64,14h-8.17v5.66H132v4.21h-7.51v9h-5.22V9.78h13.39Z"/><path class="cls-1" d="M151.92,16.37l-5.45,8,5.42,8.49H146l-2.39-4.44c-.19-.35-.42-.85-.69-1.49h-.07a9.94,9.94,0,0,1-.66,1.44l-2.4,4.49h-5.87l5.59-8.2-5.25-8.27h5.91L142.54,21a10.22,10.22,0,0,1,.66,1.54h.07A10.46,10.46,0,0,1,144,21l2.41-4.59Z"/><path class="cls-1" d="M53.86,14.07h-2V21h2c2.67,0,4-1.17,4-3.49S56.53,14.07,53.86,14.07Z"/><path class="cls-1" d="M15.12,14.07h-2V21h2c2.67,0,4-1.17,4-3.49S17.79,14.07,15.12,14.07Z"/><path class="cls-1" d="M0,0V42.64l70,.11V.12ZM22,22.7a9.54,9.54,0,0,1-6.44,2.06H13.15V32.4h-5V10.24H16q8.4,0,8.41,7.06A6.75,6.75,0,0,1,22,22.7Zm20.54,9.7H37.63V23.6q0-3.68-2.64-3.67a2.62,2.62,0,0,0-2.09,1,3.68,3.68,0,0,0-.82,2.47v9H27.17V16.57h4.91v2.51h.06a5.62,5.62,0,0,1,5.1-2.89q5.28,0,5.28,6.52Zm18.21-9.7a9.57,9.57,0,0,1-6.45,2.06H51.89V32.4h-5V10.24h7.85q8.42,0,8.41,7.06A6.77,6.77,0,0,1,60.73,22.7Z"/><path class="cls-1" d="M161.25,2.4V40.48H70V2.4h91.21M163.53.13H67.76V42.76h95.77V.13Z"/></g></g></svg>
